<svg width="593" height="117" viewBox="0 0 593 117" fill="none" xmlns="http://www.w3.org/2000/svg">
<g clip-path="url(#clip0)">
<g filter="url(#filter0_d)">
<path d="M581.46 116.999L11.2525 109.766C4.40974 109.678 -0.813628 103.632 0.105026 96.8578L10.0571 23.4027C10.805 17.8631 15.4748 13.6879 21.0692 13.5526L569.741 0.00363565C575.606 -0.14338 580.617 4.18477 581.336 9.99485L592.913 104.232C593.755 111.077 588.361 117.087 581.46 116.999Z" fill="#E48A4D"/>
<path d="M10.5526 23.4698L10.5526 23.4696C11.2675 18.1741 15.7319 14.1818 21.0813 14.0525L21.0815 14.0525L569.753 0.503483L569.741 0.00363565L569.753 0.503479C575.361 0.362916 580.152 4.50099 580.84 10.0558C580.84 10.0559 580.84 10.0561 580.84 10.0562L592.417 104.293C593.222 110.837 588.065 116.583 581.466 116.499L11.2589 109.266C4.71555 109.182 -0.2777 103.401 0.600491 96.925L0.105026 96.8578L0.600499 96.925L10.5526 23.4698Z" stroke="black" stroke-opacity="0.1"/>
</g>
</g>
<defs>
<filter id="filter0_d" x="-3" y="0" width="601" height="127" filterUnits="userSpaceOnUse" color-interpolation-filters="sRGB">
<feFlood flood-opacity="0" result="BackgroundImageFix"/>
<feColorMatrix in="SourceAlpha" type="matrix" values="0 0 0 0 0 0 0 0 0 0 0 0 0 0 0 0 0 0 127 0"/>
<feOffset dx="1" dy="6"/>
<feGaussianBlur stdDeviation="2"/>
<feColorMatrix type="matrix" values="0 0 0 0 0.988235 0 0 0 0 0.654902 0 0 0 0 0.0470588 0 0 0 0.73 0"/>
<feBlend mode="normal" in2="BackgroundImageFix" result="effect1_dropShadow"/>
<feBlend mode="normal" in="SourceGraphic" in2="effect1_dropShadow" result="shape"/>
</filter>
<clipPath id="clip0">
<rect width="593" height="117" fill="white"/>
</clipPath>
</defs>
</svg>
